<?xml version="1.0" encoding="utf-8" standalone="no"?>
<!DOCTYPE svg PUBLIC "-//W3C//DTD SVG 1.1//EN"
  "http://www.w3.org/Graphics/SVG/1.1/DTD/svg11.dtd">
<svg height="360pt" version="1.1" viewBox="0 0 864 360" width="864pt" xmlns="http://www.w3.org/2000/svg" xmlns:xlink="http://www.w3.org/1999/xlink">
 <metadata>
  <rdf:RDF xmlns:cc="http://creativecommons.org/ns#" xmlns:dc="http://purl.org/dc/elements/1.1/" xmlns:rdf="http://www.w3.org/1999/02/22-rdf-syntax-ns#">
   <cc:Work>
    <dc:type rdf:resource="http://purl.org/dc/dcmitype/StillImage"/>
    <dc:date>2021-09-08T20:05:11.773813</dc:date>
    <dc:format>image/svg+xml</dc:format>
    <dc:creator>
     <cc:Agent>
      <dc:title>Matplotlib v3.4.3, https://matplotlib.org/</dc:title>
     </cc:Agent>
    </dc:creator>
   </cc:Work>
  </rdf:RDF>
 </metadata>
 <defs>
  <style type="text/css">*{stroke-linecap:butt;stroke-linejoin:round;}</style>
 </defs>
 <g id="figure_1">
  <g id="patch_1">
   <path d="M 0 360 
L 864 360 
L 864 0 
L 0 0 
z
" style="fill:#ffffff;"/>
  </g>
  <g id="axes_1">
   <g id="patch_2">
    <path d="M 108 315 
L 777.6 315 
L 777.6 43.2 
L 108 43.2 
z
" style="fill:#ffffff;"/>
   </g>
   <g id="matplotlib.axis_1">
    <g id="xtick_1">
     <g id="line2d_1">
      <path clip-path="url(#pc446412181)" d="M 151.206866 315 
L 151.206866 43.2 
" style="fill:none;stroke:#cccccc;stroke-linecap:round;stroke-width:0.8;"/>
     </g>
     <g id="line2d_2"/>
     <g id="text_1">
      <!-- Jul -->
      <g style="fill:#262626;" transform="translate(144.81546 325.746875)scale(0.1 -0.1)">
       <defs>
        <path d="M 1428 -63 
Q 309 -63 100 1094 
L 684 1191 
Q 741 828 937 625 
Q 1134 422 1431 422 
Q 1756 422 1943 645 
Q 2131 869 2131 1300 
L 2131 3916 
L 1284 3916 
L 1284 4403 
L 2725 4403 
L 2725 1313 
Q 2725 672 2378 304 
Q 2031 -63 1428 -63 
z
" id="LiberationSans-4a" transform="scale(0.015625)"/>
        <path d="M 981 3381 
L 981 1238 
Q 981 903 1047 718 
Q 1113 534 1256 453 
Q 1400 372 1678 372 
Q 2084 372 2318 650 
Q 2553 928 2553 1422 
L 2553 3381 
L 3116 3381 
L 3116 722 
Q 3116 131 3134 0 
L 2603 0 
Q 2600 16 2597 84 
Q 2594 153 2589 242 
Q 2584 331 2578 578 
L 2569 578 
Q 2375 228 2120 82 
Q 1866 -63 1488 -63 
Q 931 -63 673 214 
Q 416 491 416 1128 
L 416 3381 
L 981 3381 
z
" id="LiberationSans-75" transform="scale(0.015625)"/>
        <path d="M 431 0 
L 431 4638 
L 994 4638 
L 994 0 
L 431 0 
z
" id="LiberationSans-6c" transform="scale(0.015625)"/>
       </defs>
       <use xlink:href="#LiberationSans-4a"/>
       <use x="50" xlink:href="#LiberationSans-75"/>
       <use x="105.615234" xlink:href="#LiberationSans-6c"/>
      </g>
      <!-- 2017 -->
      <g style="fill:#262626;" transform="translate(140.084991 336.518125)scale(0.1 -0.1)">
       <defs>
        <path d="M 322 0 
L 322 397 
Q 481 763 711 1042 
Q 941 1322 1194 1548 
Q 1447 1775 1695 1969 
Q 1944 2163 2144 2356 
Q 2344 2550 2467 2762 
Q 2591 2975 2591 3244 
Q 2591 3606 2378 3806 
Q 2166 4006 1788 4006 
Q 1428 4006 1195 3811 
Q 963 3616 922 3263 
L 347 3316 
Q 409 3844 795 4156 
Q 1181 4469 1788 4469 
Q 2453 4469 2811 4155 
Q 3169 3841 3169 3263 
Q 3169 3006 3051 2753 
Q 2934 2500 2703 2247 
Q 2472 1994 1819 1463 
Q 1459 1169 1246 933 
Q 1034 697 941 478 
L 3238 478 
L 3238 0 
L 322 0 
z
" id="LiberationSans-32" transform="scale(0.015625)"/>
        <path d="M 3309 2203 
Q 3309 1100 2920 518 
Q 2531 -63 1772 -63 
Q 1013 -63 631 515 
Q 250 1094 250 2203 
Q 250 3338 620 3903 
Q 991 4469 1791 4469 
Q 2569 4469 2939 3897 
Q 3309 3325 3309 2203 
z
M 2738 2203 
Q 2738 3156 2517 3584 
Q 2297 4013 1791 4013 
Q 1272 4013 1045 3591 
Q 819 3169 819 2203 
Q 819 1266 1048 831 
Q 1278 397 1778 397 
Q 2275 397 2506 840 
Q 2738 1284 2738 2203 
z
" id="LiberationSans-30" transform="scale(0.015625)"/>
        <path d="M 488 0 
L 488 478 
L 1609 478 
L 1609 3866 
L 616 3156 
L 616 3688 
L 1656 4403 
L 2175 4403 
L 2175 478 
L 3247 478 
L 3247 0 
L 488 0 
z
" id="LiberationSans-31" transform="scale(0.015625)"/>
        <path d="M 3238 3947 
Q 2563 2916 2284 2331 
Q 2006 1747 1867 1178 
Q 1728 609 1728 0 
L 1141 0 
Q 1141 844 1498 1776 
Q 1856 2709 2694 3925 
L 328 3925 
L 328 4403 
L 3238 4403 
L 3238 3947 
z
" id="LiberationSans-37" transform="scale(0.015625)"/>
       </defs>
       <use xlink:href="#LiberationSans-32"/>
       <use x="55.615234" xlink:href="#LiberationSans-30"/>
       <use x="111.230469" xlink:href="#LiberationSans-31"/>
       <use x="166.845703" xlink:href="#LiberationSans-37"/>
      </g>
     </g>
    </g>
    <g id="xtick_2">
     <g id="line2d_3">
      <path clip-path="url(#pc446412181)" d="M 229.532613 315 
L 229.532613 43.2 
" style="fill:none;stroke:#cccccc;stroke-linecap:round;stroke-width:0.8;"/>
     </g>
     <g id="line2d_4"/>
     <g id="text_2">
      <!-- Jan -->
      <g style="fill:#262626;" transform="translate(221.471675 325.746875)scale(0.1 -0.1)">
       <defs>
        <path d="M 1294 -63 
Q 784 -63 528 206 
Q 272 475 272 944 
Q 272 1469 617 1750 
Q 963 2031 1731 2050 
L 2491 2063 
L 2491 2247 
Q 2491 2659 2316 2837 
Q 2141 3016 1766 3016 
Q 1388 3016 1216 2887 
Q 1044 2759 1009 2478 
L 422 2531 
Q 566 3444 1778 3444 
Q 2416 3444 2737 3151 
Q 3059 2859 3059 2306 
L 3059 850 
Q 3059 600 3125 473 
Q 3191 347 3375 347 
Q 3456 347 3559 369 
L 3559 19 
Q 3347 -31 3125 -31 
Q 2813 -31 2670 133 
Q 2528 297 2509 647 
L 2491 647 
Q 2275 259 1989 98 
Q 1703 -63 1294 -63 
z
M 1422 359 
Q 1731 359 1972 500 
Q 2213 641 2352 886 
Q 2491 1131 2491 1391 
L 2491 1669 
L 1875 1656 
Q 1478 1650 1273 1575 
Q 1069 1500 959 1344 
Q 850 1188 850 934 
Q 850 659 998 509 
Q 1147 359 1422 359 
z
" id="LiberationSans-61" transform="scale(0.015625)"/>
        <path d="M 2578 0 
L 2578 2144 
Q 2578 2478 2512 2662 
Q 2447 2847 2303 2928 
Q 2159 3009 1881 3009 
Q 1475 3009 1240 2731 
Q 1006 2453 1006 1959 
L 1006 0 
L 444 0 
L 444 2659 
Q 444 3250 425 3381 
L 956 3381 
Q 959 3366 962 3297 
Q 966 3228 970 3139 
Q 975 3050 981 2803 
L 991 2803 
Q 1184 3153 1439 3298 
Q 1694 3444 2072 3444 
Q 2628 3444 2886 3167 
Q 3144 2891 3144 2253 
L 3144 0 
L 2578 0 
z
" id="LiberationSans-6e" transform="scale(0.015625)"/>
       </defs>
       <use xlink:href="#LiberationSans-4a"/>
       <use x="50" xlink:href="#LiberationSans-61"/>
       <use x="105.615234" xlink:href="#LiberationSans-6e"/>
      </g>
      <!-- 2018 -->
      <g style="fill:#262626;" transform="translate(218.410738 336.518125)scale(0.1 -0.1)">
       <defs>
        <path d="M 3281 1228 
Q 3281 619 2893 278 
Q 2506 -63 1781 -63 
Q 1075 -63 676 271 
Q 278 606 278 1222 
Q 278 1653 525 1947 
Q 772 2241 1156 2303 
L 1156 2316 
Q 797 2400 589 2681 
Q 381 2963 381 3341 
Q 381 3844 757 4156 
Q 1134 4469 1769 4469 
Q 2419 4469 2795 4162 
Q 3172 3856 3172 3334 
Q 3172 2956 2962 2675 
Q 2753 2394 2391 2322 
L 2391 2309 
Q 2813 2241 3047 1952 
Q 3281 1663 3281 1228 
z
M 2588 3303 
Q 2588 4050 1769 4050 
Q 1372 4050 1164 3862 
Q 956 3675 956 3303 
Q 956 2925 1170 2726 
Q 1384 2528 1775 2528 
Q 2172 2528 2380 2711 
Q 2588 2894 2588 3303 
z
M 2697 1281 
Q 2697 1691 2453 1898 
Q 2209 2106 1769 2106 
Q 1341 2106 1100 1882 
Q 859 1659 859 1269 
Q 859 359 1788 359 
Q 2247 359 2472 579 
Q 2697 800 2697 1281 
z
" id="LiberationSans-38" transform="scale(0.015625)"/>
       </defs>
       <use xlink:href="#LiberationSans-32"/>
       <use x="55.615234" xlink:href="#LiberationSans-30"/>
       <use x="111.230469" xlink:href="#LiberationSans-31"/>
       <use x="166.845703" xlink:href="#LiberationSans-38"/>
      </g>
     </g>
    </g>
    <g id="xtick_3">
     <g id="line2d_5">
      <path clip-path="url(#pc446412181)" d="M 306.58131 315 
L 306.58131 43.2 
" style="fill:none;stroke:#cccccc;stroke-linecap:round;stroke-width:0.8;"/>
     </g>
     <g id="line2d_6"/>
     <g id="text_3">
      <!-- Jul -->
      <g style="fill:#262626;" transform="translate(300.189903 325.746875)scale(0.1 -0.1)">
       <use xlink:href="#LiberationSans-4a"/>
       <use x="50" xlink:href="#LiberationSans-75"/>
       <use x="105.615234" xlink:href="#LiberationSans-6c"/>
      </g>
      <!-- 2018 -->
      <g style="fill:#262626;" transform="translate(295.459435 336.518125)scale(0.1 -0.1)">
       <use xlink:href="#LiberationSans-32"/>
       <use x="55.615234" xlink:href="#LiberationSans-30"/>
       <use x="111.230469" xlink:href="#LiberationSans-31"/>
       <use x="166.845703" xlink:href="#LiberationSans-38"/>
      </g>
     </g>
    </g>
    <g id="xtick_4">
     <g id="line2d_7">
      <path clip-path="url(#pc446412181)" d="M 384.907057 315 
L 384.907057 43.2 
" style="fill:none;stroke:#cccccc;stroke-linecap:round;stroke-width:0.8;"/>
     </g>
     <g id="line2d_8"/>
     <g id="text_4">
      <!-- Jan -->
      <g style="fill:#262626;" transform="translate(376.846119 325.746875)scale(0.1 -0.1)">
       <use xlink:href="#LiberationSans-4a"/>
       <use x="50" xlink:href="#LiberationSans-61"/>
       <use x="105.615234" xlink:href="#LiberationSans-6e"/>
      </g>
      <!-- 2019 -->
      <g style="fill:#262626;" transform="translate(373.785182 336.518125)scale(0.1 -0.1)">
       <defs>
        <path d="M 3256 2291 
Q 3256 1156 2842 546 
Q 2428 -63 1663 -63 
Q 1147 -63 836 154 
Q 525 372 391 856 
L 928 941 
Q 1097 391 1672 391 
Q 2156 391 2422 841 
Q 2688 1291 2700 2125 
Q 2575 1844 2272 1673 
Q 1969 1503 1606 1503 
Q 1013 1503 656 1909 
Q 300 2316 300 2988 
Q 300 3678 687 4073 
Q 1075 4469 1766 4469 
Q 2500 4469 2878 3925 
Q 3256 3381 3256 2291 
z
M 2644 2834 
Q 2644 3366 2400 3689 
Q 2156 4013 1747 4013 
Q 1341 4013 1106 3736 
Q 872 3459 872 2988 
Q 872 2506 1106 2226 
Q 1341 1947 1741 1947 
Q 1984 1947 2193 2058 
Q 2403 2169 2523 2372 
Q 2644 2575 2644 2834 
z
" id="LiberationSans-39" transform="scale(0.015625)"/>
       </defs>
       <use xlink:href="#LiberationSans-32"/>
       <use x="55.615234" xlink:href="#LiberationSans-30"/>
       <use x="111.230469" xlink:href="#LiberationSans-31"/>
       <use x="166.845703" xlink:href="#LiberationSans-39"/>
      </g>
     </g>
    </g>
    <g id="xtick_5">
     <g id="line2d_9">
      <path clip-path="url(#pc446412181)" d="M 461.955753 315 
L 461.955753 43.2 
" style="fill:none;stroke:#cccccc;stroke-linecap:round;stroke-width:0.8;"/>
     </g>
     <g id="line2d_10"/>
     <g id="text_5">
      <!-- Jul -->
      <g style="fill:#262626;" transform="translate(455.564347 325.746875)scale(0.1 -0.1)">
       <use xlink:href="#LiberationSans-4a"/>
       <use x="50" xlink:href="#LiberationSans-75"/>
       <use x="105.615234" xlink:href="#LiberationSans-6c"/>
      </g>
      <!-- 2019 -->
      <g style="fill:#262626;" transform="translate(450.833878 336.518125)scale(0.1 -0.1)">
       <use xlink:href="#LiberationSans-32"/>
       <use x="55.615234" xlink:href="#LiberationSans-30"/>
       <use x="111.230469" xlink:href="#LiberationSans-31"/>
       <use x="166.845703" xlink:href="#LiberationSans-39"/>
      </g>
     </g>
    </g>
    <g id="xtick_6">
     <g id="line2d_11">
      <path clip-path="url(#pc446412181)" d="M 540.2815 315 
L 540.2815 43.2 
" style="fill:none;stroke:#cccccc;stroke-linecap:round;stroke-width:0.8;"/>
     </g>
     <g id="line2d_12"/>
     <g id="text_6">
      <!-- Jan -->
      <g style="fill:#262626;" transform="translate(532.220563 325.746875)scale(0.1 -0.1)">
       <use xlink:href="#LiberationSans-4a"/>
       <use x="50" xlink:href="#LiberationSans-61"/>
       <use x="105.615234" xlink:href="#LiberationSans-6e"/>
      </g>
      <!-- 2020 -->
      <g style="fill:#262626;" transform="translate(529.159625 336.518125)scale(0.1 -0.1)">
       <use xlink:href="#LiberationSans-32"/>
       <use x="55.615234" xlink:href="#LiberationSans-30"/>
       <use x="111.230469" xlink:href="#LiberationSans-32"/>
       <use x="166.845703" xlink:href="#LiberationSans-30"/>
      </g>
     </g>
    </g>
    <g id="xtick_7">
     <g id="line2d_13">
      <path clip-path="url(#pc446412181)" d="M 617.75588 315 
L 617.75588 43.2 
" style="fill:none;stroke:#cccccc;stroke-linecap:round;stroke-width:0.8;"/>
     </g>
     <g id="line2d_14"/>
     <g id="text_7">
      <!-- Jul -->
      <g style="fill:#262626;" transform="translate(611.364474 325.746875)scale(0.1 -0.1)">
       <use xlink:href="#LiberationSans-4a"/>
       <use x="50" xlink:href="#LiberationSans-75"/>
       <use x="105.615234" xlink:href="#LiberationSans-6c"/>
      </g>
      <!-- 2020 -->
      <g style="fill:#262626;" transform="translate(606.634005 336.518125)scale(0.1 -0.1)">
       <use xlink:href="#LiberationSans-32"/>
       <use x="55.615234" xlink:href="#LiberationSans-30"/>
       <use x="111.230469" xlink:href="#LiberationSans-32"/>
       <use x="166.845703" xlink:href="#LiberationSans-30"/>
      </g>
     </g>
    </g>
    <g id="xtick_8">
     <g id="line2d_15">
      <path clip-path="url(#pc446412181)" d="M 696.081627 315 
L 696.081627 43.2 
" style="fill:none;stroke:#cccccc;stroke-linecap:round;stroke-width:0.8;"/>
     </g>
     <g id="line2d_16"/>
     <g id="text_8">
      <!-- Jan -->
      <g style="fill:#262626;" transform="translate(688.02069 325.746875)scale(0.1 -0.1)">
       <use xlink:href="#LiberationSans-4a"/>
       <use x="50" xlink:href="#LiberationSans-61"/>
       <use x="105.615234" xlink:href="#LiberationSans-6e"/>
      </g>
      <!-- 2021 -->
      <g style="fill:#262626;" transform="translate(684.959752 336.518125)scale(0.1 -0.1)">
       <use xlink:href="#LiberationSans-32"/>
       <use x="55.615234" xlink:href="#LiberationSans-30"/>
       <use x="111.230469" xlink:href="#LiberationSans-32"/>
       <use x="166.845703" xlink:href="#LiberationSans-31"/>
      </g>
     </g>
    </g>
    <g id="xtick_9">
     <g id="line2d_17">
      <path clip-path="url(#pc446412181)" d="M 773.130324 315 
L 773.130324 43.2 
" style="fill:none;stroke:#cccccc;stroke-linecap:round;stroke-width:0.8;"/>
     </g>
     <g id="line2d_18"/>
     <g id="text_9">
      <!-- Jul -->
      <g style="fill:#262626;" transform="translate(766.738918 325.746875)scale(0.1 -0.1)">
       <use xlink:href="#LiberationSans-4a"/>
       <use x="50" xlink:href="#LiberationSans-75"/>
       <use x="105.615234" xlink:href="#LiberationSans-6c"/>
      </g>
      <!-- 2021 -->
      <g style="fill:#262626;" transform="translate(762.008449 336.518125)scale(0.1 -0.1)">
       <use xlink:href="#LiberationSans-32"/>
       <use x="55.615234" xlink:href="#LiberationSans-30"/>
       <use x="111.230469" xlink:href="#LiberationSans-32"/>
       <use x="166.845703" xlink:href="#LiberationSans-31"/>
      </g>
     </g>
    </g>
   </g>
   <g id="matplotlib.axis_2">
    <g id="ytick_1">
     <g id="line2d_19">
      <path clip-path="url(#pc446412181)" d="M 108 290.070854 
L 777.6 290.070854 
" style="fill:none;stroke:#cccccc;stroke-linecap:round;stroke-width:0.8;"/>
     </g>
     <g id="line2d_20"/>
     <g id="text_10">
      <!-- 404 -->
      <g style="fill:#262626;" transform="translate(87.817188 293.694291)scale(0.1 -0.1)">
       <defs>
        <path d="M 2753 997 
L 2753 0 
L 2222 0 
L 2222 997 
L 147 997 
L 147 1434 
L 2163 4403 
L 2753 4403 
L 2753 1441 
L 3372 1441 
L 3372 997 
L 2753 997 
z
M 2222 3769 
Q 2216 3750 2134 3603 
Q 2053 3456 2013 3397 
L 884 1734 
L 716 1503 
L 666 1441 
L 2222 1441 
L 2222 3769 
z
" id="LiberationSans-34" transform="scale(0.015625)"/>
       </defs>
       <use xlink:href="#LiberationSans-34"/>
       <use x="55.615234" xlink:href="#LiberationSans-30"/>
       <use x="111.230469" xlink:href="#LiberationSans-34"/>
      </g>
     </g>
    </g>
    <g id="ytick_2">
     <g id="line2d_21">
      <path clip-path="url(#pc446412181)" d="M 108 258.634351 
L 777.6 258.634351 
" style="fill:none;stroke:#cccccc;stroke-linecap:round;stroke-width:0.8;"/>
     </g>
     <g id="line2d_22"/>
     <g id="text_11">
      <!-- 406 -->
      <g style="fill:#262626;" transform="translate(87.817188 262.257789)scale(0.1 -0.1)">
       <defs>
        <path d="M 3278 1441 
Q 3278 744 2900 340 
Q 2522 -63 1856 -63 
Q 1113 -63 719 490 
Q 325 1044 325 2100 
Q 325 3244 734 3856 
Q 1144 4469 1900 4469 
Q 2897 4469 3156 3572 
L 2619 3475 
Q 2453 4013 1894 4013 
Q 1413 4013 1148 3564 
Q 884 3116 884 2266 
Q 1038 2550 1316 2698 
Q 1594 2847 1953 2847 
Q 2563 2847 2920 2465 
Q 3278 2084 3278 1441 
z
M 2706 1416 
Q 2706 1894 2472 2153 
Q 2238 2413 1819 2413 
Q 1425 2413 1183 2183 
Q 941 1953 941 1550 
Q 941 1041 1192 716 
Q 1444 391 1838 391 
Q 2244 391 2475 664 
Q 2706 938 2706 1416 
z
" id="LiberationSans-36" transform="scale(0.015625)"/>
       </defs>
       <use xlink:href="#LiberationSans-34"/>
       <use x="55.615234" xlink:href="#LiberationSans-30"/>
       <use x="111.230469" xlink:href="#LiberationSans-36"/>
      </g>
     </g>
    </g>
    <g id="ytick_3">
     <g id="line2d_23">
      <path clip-path="url(#pc446412181)" d="M 108 227.197849 
L 777.6 227.197849 
" style="fill:none;stroke:#cccccc;stroke-linecap:round;stroke-width:0.8;"/>
     </g>
     <g id="line2d_24"/>
     <g id="text_12">
      <!-- 408 -->
      <g style="fill:#262626;" transform="translate(87.817188 230.821286)scale(0.1 -0.1)">
       <use xlink:href="#LiberationSans-34"/>
       <use x="55.615234" xlink:href="#LiberationSans-30"/>
       <use x="111.230469" xlink:href="#LiberationSans-38"/>
      </g>
     </g>
    </g>
    <g id="ytick_4">
     <g id="line2d_25">
      <path clip-path="url(#pc446412181)" d="M 108 195.761346 
L 777.6 195.761346 
" style="fill:none;stroke:#cccccc;stroke-linecap:round;stroke-width:0.8;"/>
     </g>
     <g id="line2d_26"/>
     <g id="text_13">
      <!-- 410 -->
      <g style="fill:#262626;" transform="translate(87.817188 199.384784)scale(0.1 -0.1)">
       <use xlink:href="#LiberationSans-34"/>
       <use x="55.615234" xlink:href="#LiberationSans-31"/>
       <use x="111.230469" xlink:href="#LiberationSans-30"/>
      </g>
     </g>
    </g>
    <g id="ytick_5">
     <g id="line2d_27">
      <path clip-path="url(#pc446412181)" d="M 108 164.324844 
L 777.6 164.324844 
" style="fill:none;stroke:#cccccc;stroke-linecap:round;stroke-width:0.8;"/>
     </g>
     <g id="line2d_28"/>
     <g id="text_14">
      <!-- 412 -->
      <g style="fill:#262626;" transform="translate(87.817188 167.948281)scale(0.1 -0.1)">
       <use xlink:href="#LiberationSans-34"/>
       <use x="55.615234" xlink:href="#LiberationSans-31"/>
       <use x="111.230469" xlink:href="#LiberationSans-32"/>
      </g>
     </g>
    </g>
    <g id="ytick_6">
     <g id="line2d_29">
      <path clip-path="url(#pc446412181)" d="M 108 132.888341 
L 777.6 132.888341 
" style="fill:none;stroke:#cccccc;stroke-linecap:round;stroke-width:0.8;"/>
     </g>
     <g id="line2d_30"/>
     <g id="text_15">
      <!-- 414 -->
      <g style="fill:#262626;" transform="translate(87.817188 136.511779)scale(0.1 -0.1)">
       <use xlink:href="#LiberationSans-34"/>
       <use x="55.615234" xlink:href="#LiberationSans-31"/>
       <use x="111.230469" xlink:href="#LiberationSans-34"/>
      </g>
     </g>
    </g>
    <g id="ytick_7">
     <g id="line2d_31">
      <path clip-path="url(#pc446412181)" d="M 108 101.451839 
L 777.6 101.451839 
" style="fill:none;stroke:#cccccc;stroke-linecap:round;stroke-width:0.8;"/>
     </g>
     <g id="line2d_32"/>
     <g id="text_16">
      <!-- 416 -->
      <g style="fill:#262626;" transform="translate(87.817188 105.075277)scale(0.1 -0.1)">
       <use xlink:href="#LiberationSans-34"/>
       <use x="55.615234" xlink:href="#LiberationSans-31"/>
       <use x="111.230469" xlink:href="#LiberationSans-36"/>
      </g>
     </g>
    </g>
    <g id="ytick_8">
     <g id="line2d_33">
      <path clip-path="url(#pc446412181)" d="M 108 70.015337 
L 777.6 70.015337 
" style="fill:none;stroke:#cccccc;stroke-linecap:round;stroke-width:0.8;"/>
     </g>
     <g id="line2d_34"/>
     <g id="text_17">
      <!-- 418 -->
      <g style="fill:#262626;" transform="translate(87.817188 73.638774)scale(0.1 -0.1)">
       <use xlink:href="#LiberationSans-34"/>
       <use x="55.615234" xlink:href="#LiberationSans-31"/>
       <use x="111.230469" xlink:href="#LiberationSans-38"/>
      </g>
     </g>
    </g>
   </g>
   <g id="PathCollection_1">
    <defs>
     <path d="M 0 3 
C 0.795609 3 1.55874 2.683901 2.12132 2.12132 
C 2.683901 1.55874 3 0.795609 3 0 
C 3 -0.795609 2.683901 -1.55874 2.12132 -2.12132 
C 1.55874 -2.683901 0.795609 -3 0 -3 
C -0.795609 -3 -1.55874 -2.683901 -2.12132 -2.12132 
C -2.683901 -1.55874 -3 -0.795609 -3 0 
C -3 0.795609 -2.683901 1.55874 -2.12132 2.12132 
C -1.55874 2.683901 -0.795609 3 0 3 
z
" id="mc7e364dfda" style="stroke:#000000;"/>
    </defs>
    <g clip-path="url(#pc446412181)">
     <use style="stroke:#000000;" x="138.436364" xlink:href="#mc7e364dfda" y="210.693685"/>
     <use style="stroke:#000000;" x="151.206866" xlink:href="#mc7e364dfda" y="240.872727"/>
     <use style="stroke:#000000;" x="164.403051" xlink:href="#mc7e364dfda" y="271.6805"/>
     <use style="stroke:#000000;" x="177.599237" xlink:href="#mc7e364dfda" y="302.645455"/>
     <use style="stroke:#000000;" x="190.369739" xlink:href="#mc7e364dfda" y="296.829702"/>
     <use style="stroke:#000000;" x="203.565925" xlink:href="#mc7e364dfda" y="272.780777"/>
     <use style="stroke:#000000;" x="216.336427" xlink:href="#mc7e364dfda" y="247.94594"/>
     <use style="stroke:#000000;" x="229.532613" xlink:href="#mc7e364dfda" y="227.512214"/>
     <use style="stroke:#000000;" x="242.728798" xlink:href="#mc7e364dfda" y="222.796738"/>
     <use style="stroke:#000000;" x="254.647934" xlink:href="#mc7e364dfda" y="208.49313"/>
     <use style="stroke:#000000;" x="267.84412" xlink:href="#mc7e364dfda" y="191.988966"/>
     <use style="stroke:#000000;" x="280.614622" xlink:href="#mc7e364dfda" y="176.427897"/>
     <use style="stroke:#000000;" x="293.810807" xlink:href="#mc7e364dfda" y="183.029563"/>
     <use style="stroke:#000000;" x="306.58131" xlink:href="#mc7e364dfda" y="214.1517"/>
     <use style="stroke:#000000;" x="319.777495" xlink:href="#mc7e364dfda" y="242.601735"/>
     <use style="stroke:#000000;" x="332.973681" xlink:href="#mc7e364dfda" y="266.179112"/>
     <use style="stroke:#000000;" x="345.744183" xlink:href="#mc7e364dfda" y="259.734629"/>
     <use style="stroke:#000000;" x="358.940369" xlink:href="#mc7e364dfda" y="226.411936"/>
     <use style="stroke:#000000;" x="371.710871" xlink:href="#mc7e364dfda" y="208.964677"/>
     <use style="stroke:#000000;" x="384.907057" xlink:href="#mc7e364dfda" y="182.400833"/>
     <use style="stroke:#000000;" x="398.103242" xlink:href="#mc7e364dfda" y="170.769327"/>
     <use style="stroke:#000000;" x="410.022378" xlink:href="#mc7e364dfda" y="165.425121"/>
     <use style="stroke:#000000;" x="423.218563" xlink:href="#mc7e364dfda" y="141.376197"/>
     <use style="stroke:#000000;" x="435.989065" xlink:href="#mc7e364dfda" y="120.942471"/>
     <use style="stroke:#000000;" x="449.185251" xlink:href="#mc7e364dfda" y="134.617349"/>
     <use style="stroke:#000000;" x="461.955753" xlink:href="#mc7e364dfda" y="167.782859"/>
     <use style="stroke:#000000;" x="475.151939" xlink:href="#mc7e364dfda" y="195.604164"/>
     <use style="stroke:#000000;" x="488.348125" xlink:href="#mc7e364dfda" y="219.653088"/>
     <use style="stroke:#000000;" x="501.118627" xlink:href="#mc7e364dfda" y="221.382096"/>
     <use style="stroke:#000000;" x="514.314812" xlink:href="#mc7e364dfda" y="192.303331"/>
     <use style="stroke:#000000;" x="527.085315" xlink:href="#mc7e364dfda" y="167.782859"/>
     <use style="stroke:#000000;" x="540.2815" xlink:href="#mc7e364dfda" y="142.633657"/>
     <use style="stroke:#000000;" x="553.477686" xlink:href="#mc7e364dfda" y="132.416794"/>
     <use style="stroke:#000000;" x="565.822505" xlink:href="#mc7e364dfda" y="125.972311"/>
     <use style="stroke:#000000;" x="579.01869" xlink:href="#mc7e364dfda" y="99.722831"/>
     <use style="stroke:#000000;" x="591.789193" xlink:href="#mc7e364dfda" y="84.161763"/>
     <use style="stroke:#000000;" x="604.985378" xlink:href="#mc7e364dfda" y="97.836641"/>
     <use style="stroke:#000000;" x="617.75588" xlink:href="#mc7e364dfda" y="125.500763"/>
     <use style="stroke:#000000;" x="630.952066" xlink:href="#mc7e364dfda" y="155.994171"/>
     <use style="stroke:#000000;" x="644.148252" xlink:href="#mc7e364dfda" y="177.056627"/>
     <use style="stroke:#000000;" x="656.918754" xlink:href="#mc7e364dfda" y="177.685357"/>
     <use style="stroke:#000000;" x="670.11494" xlink:href="#mc7e364dfda" y="150.492783"/>
     <use style="stroke:#000000;" x="682.885442" xlink:href="#mc7e364dfda" y="134.617349"/>
     <use style="stroke:#000000;" x="696.081627" xlink:href="#mc7e364dfda" y="114.497988"/>
     <use style="stroke:#000000;" x="709.277813" xlink:href="#mc7e364dfda" y="94.064261"/>
     <use style="stroke:#000000;" x="721.196949" xlink:href="#mc7e364dfda" y="83.533033"/>
     <use style="stroke:#000000;" x="734.393134" xlink:href="#mc7e364dfda" y="66.242956"/>
     <use style="stroke:#000000;" x="747.163636" xlink:href="#mc7e364dfda" y="55.554545"/>
    </g>
   </g>
   <g id="PolyCollection_1">
    <defs>
     <path d="M 138.436364 -147.889645 
L 138.436364 -142.092042 
L 151.206866 -118.098289 
L 164.403051 -86.349725 
L 177.599237 -63.130114 
L 190.369739 -62.96093 
L 203.565925 -83.880797 
L 216.336427 -108.687406 
L 229.532613 -124.586295 
L 242.728798 -136.201195 
L 254.647934 -152.981722 
L 267.84412 -172.58585 
L 280.614622 -183.397669 
L 293.810807 -176.811457 
L 306.58131 -153.427018 
L 319.777495 -122.304684 
L 332.973681 -100.073003 
L 345.744183 -100.868146 
L 358.940369 -122.748115 
L 371.710871 -148.341563 
L 384.907057 -165.03372 
L 398.103242 -177.264586 
L 410.022378 -194.392237 
L 423.218563 -214.660351 
L 435.989065 -225.722737 
L 449.185251 -219.057563 
L 461.955753 -195.481014 
L 475.151939 -164.20928 
L 488.348125 -141.42634 
L 501.118627 -141.831968 
L 514.314812 -163.1663 
L 527.085315 -188.620147 
L 540.2815 -204.907218 
L 553.477686 -217.021794 
L 565.822505 -234.068763 
L 579.01869 -253.838439 
L 591.789193 -264.497227 
L 604.985378 -257.470934 
L 617.75588 -233.71102 
L 630.952066 -202.070337 
L 644.148252 -179.056519 
L 656.918754 -178.837743 
L 670.11494 -199.774116 
L 682.885442 -224.100922 
L 696.081627 -239.850897 
L 709.277813 -251.491979 
L 721.196949 -267.767387 
L 734.393134 -286.568963 
L 747.163636 -296.332356 
L 747.163636 -304.225419 
L 747.163636 -304.225419 
L 734.393134 -293.941307 
L 721.196949 -274.820796 
L 709.277813 -258.264993 
L 696.081627 -246.420331 
L 682.885442 -230.512413 
L 670.11494 -206.025271 
L 656.918754 -185.006608 
L 644.148252 -185.172821 
L 630.952066 -208.100903 
L 617.75588 -239.696132 
L 604.985378 -263.444017 
L 591.789193 -270.351358 
L 579.01869 -259.675864 
L 565.822505 -239.820425 
L 553.477686 -222.856058 
L 540.2815 -210.720682 
L 527.085315 -194.441018 
L 514.314812 -169.044922 
L 501.118627 -147.689763 
L 488.348125 -147.27772 
L 475.151939 -169.967014 
L 461.955753 -201.217697 
L 449.185251 -224.886789 
L 435.989065 -231.489815 
L 423.218563 -220.516725 
L 410.022378 -200.288415 
L 398.103242 -183.090375 
L 384.907057 -170.75464 
L 371.710871 -154.117506 
L 358.940369 -128.529026 
L 345.744183 -106.629982 
L 332.973681 -105.907743 
L 319.777495 -128.105461 
L 306.58131 -159.206063 
L 293.810807 -182.675434 
L 280.614622 -189.22967 
L 267.84412 -178.403258 
L 254.647934 -158.726617 
L 242.728798 -141.991523 
L 229.532613 -130.335678 
L 216.336427 -114.468281 
L 203.565925 -89.646717 
L 190.369739 -68.666995 
L 177.599237 -68.919431 
L 164.403051 -92.094386 
L 151.206866 -123.822465 
L 138.436364 -147.889645 
z
" id="mb161ed8a4b" style="stroke:#1f77b4;stroke-opacity:0.7;"/>
    </defs>
    <g clip-path="url(#pc446412181)">
     <use style="fill:#1f77b4;fill-opacity:0.7;stroke:#1f77b4;stroke-opacity:0.7;" x="0" xlink:href="#mb161ed8a4b" y="360"/>
    </g>
   </g>
   <g id="patch_3">
    <path d="M 108 315 
L 108 43.2 
" style="fill:none;stroke:#cccccc;stroke-linecap:square;stroke-linejoin:miter;"/>
   </g>
   <g id="patch_4">
    <path d="M 777.6 315 
L 777.6 43.2 
" style="fill:none;stroke:#cccccc;stroke-linecap:square;stroke-linejoin:miter;"/>
   </g>
   <g id="patch_5">
    <path d="M 108 315 
L 777.6 315 
" style="fill:none;stroke:#cccccc;stroke-linecap:square;stroke-linejoin:miter;"/>
   </g>
   <g id="patch_6">
    <path d="M 108 43.2 
L 777.6 43.2 
" style="fill:none;stroke:#cccccc;stroke-linecap:square;stroke-linejoin:miter;"/>
   </g>
   <g id="text_18">
    <!-- monthly variation (last 4 years) -->
    <g style="fill:#262626;" transform="translate(361.108125 37.2)scale(0.12 -0.12)">
     <defs>
      <path d="M 2400 0 
L 2400 2144 
Q 2400 2634 2265 2821 
Q 2131 3009 1781 3009 
Q 1422 3009 1212 2734 
Q 1003 2459 1003 1959 
L 1003 0 
L 444 0 
L 444 2659 
Q 444 3250 425 3381 
L 956 3381 
Q 959 3366 962 3297 
Q 966 3228 970 3139 
Q 975 3050 981 2803 
L 991 2803 
Q 1172 3163 1406 3303 
Q 1641 3444 1978 3444 
Q 2363 3444 2586 3291 
Q 2809 3138 2897 2803 
L 2906 2803 
Q 3081 3144 3329 3294 
Q 3578 3444 3931 3444 
Q 4444 3444 4676 3166 
Q 4909 2888 4909 2253 
L 4909 0 
L 4353 0 
L 4353 2144 
Q 4353 2634 4218 2821 
Q 4084 3009 3734 3009 
Q 3366 3009 3161 2736 
Q 2956 2463 2956 1959 
L 2956 0 
L 2400 0 
z
" id="LiberationSans-6d" transform="scale(0.015625)"/>
      <path d="M 3291 1694 
Q 3291 806 2900 371 
Q 2509 -63 1766 -63 
Q 1025 -63 647 389 
Q 269 841 269 1694 
Q 269 3444 1784 3444 
Q 2559 3444 2925 3017 
Q 3291 2591 3291 1694 
z
M 2700 1694 
Q 2700 2394 2492 2711 
Q 2284 3028 1794 3028 
Q 1300 3028 1079 2704 
Q 859 2381 859 1694 
Q 859 1025 1076 689 
Q 1294 353 1759 353 
Q 2266 353 2483 678 
Q 2700 1003 2700 1694 
z
" id="LiberationSans-6f" transform="scale(0.015625)"/>
      <path d="M 1731 25 
Q 1453 -50 1163 -50 
Q 488 -50 488 716 
L 488 2972 
L 97 2972 
L 97 3381 
L 509 3381 
L 675 4138 
L 1050 4138 
L 1050 3381 
L 1675 3381 
L 1675 2972 
L 1050 2972 
L 1050 838 
Q 1050 594 1129 495 
Q 1209 397 1406 397 
Q 1519 397 1731 441 
L 1731 25 
z
" id="LiberationSans-74" transform="scale(0.015625)"/>
      <path d="M 991 2803 
Q 1172 3134 1426 3289 
Q 1681 3444 2072 3444 
Q 2622 3444 2883 3170 
Q 3144 2897 3144 2253 
L 3144 0 
L 2578 0 
L 2578 2144 
Q 2578 2500 2512 2673 
Q 2447 2847 2297 2928 
Q 2147 3009 1881 3009 
Q 1484 3009 1245 2734 
Q 1006 2459 1006 1994 
L 1006 0 
L 444 0 
L 444 4638 
L 1006 4638 
L 1006 3431 
Q 1006 3241 995 3037 
Q 984 2834 981 2803 
L 991 2803 
z
" id="LiberationSans-68" transform="scale(0.015625)"/>
      <path d="M 597 -1328 
Q 366 -1328 209 -1294 
L 209 -872 
Q 328 -891 472 -891 
Q 997 -891 1303 -119 
L 1356 16 
L 16 3381 
L 616 3381 
L 1328 1513 
Q 1344 1469 1366 1408 
Q 1388 1347 1506 1000 
Q 1625 653 1634 613 
L 1853 1228 
L 2594 3381 
L 3188 3381 
L 1888 0 
Q 1678 -541 1497 -805 
Q 1316 -1069 1095 -1198 
Q 875 -1328 597 -1328 
z
" id="LiberationSans-79" transform="scale(0.015625)"/>
      <path id="LiberationSans-20" transform="scale(0.015625)"/>
      <path d="M 1916 0 
L 1250 0 
L 22 3381 
L 622 3381 
L 1366 1181 
Q 1406 1056 1581 441 
L 1691 806 
L 1813 1175 
L 2581 3381 
L 3178 3381 
L 1916 0 
z
" id="LiberationSans-76" transform="scale(0.015625)"/>
      <path d="M 444 0 
L 444 2594 
Q 444 2950 425 3381 
L 956 3381 
Q 981 2806 981 2691 
L 994 2691 
Q 1128 3125 1303 3284 
Q 1478 3444 1797 3444 
Q 1909 3444 2025 3413 
L 2025 2897 
Q 1913 2928 1725 2928 
Q 1375 2928 1190 2626 
Q 1006 2325 1006 1763 
L 1006 0 
L 444 0 
z
" id="LiberationSans-72" transform="scale(0.015625)"/>
      <path d="M 428 4100 
L 428 4638 
L 991 4638 
L 991 4100 
L 428 4100 
z
M 428 0 
L 428 3381 
L 991 3381 
L 991 0 
L 428 0 
z
" id="LiberationSans-69" transform="scale(0.015625)"/>
      <path d="M 397 1663 
Q 397 2566 680 3284 
Q 963 4003 1550 4638 
L 2094 4638 
Q 1509 3988 1236 3256 
Q 963 2525 963 1656 
Q 963 791 1233 62 
Q 1503 -666 2094 -1325 
L 1550 -1325 
Q 959 -688 678 32 
Q 397 753 397 1650 
L 397 1663 
z
" id="LiberationSans-28" transform="scale(0.015625)"/>
      <path d="M 2969 934 
Q 2969 456 2608 196 
Q 2247 -63 1597 -63 
Q 966 -63 623 145 
Q 281 353 178 794 
L 675 891 
Q 747 619 972 492 
Q 1197 366 1597 366 
Q 2025 366 2223 497 
Q 2422 628 2422 891 
Q 2422 1091 2284 1216 
Q 2147 1341 1841 1422 
L 1438 1528 
Q 953 1653 748 1773 
Q 544 1894 428 2066 
Q 313 2238 313 2488 
Q 313 2950 642 3192 
Q 972 3434 1603 3434 
Q 2163 3434 2492 3237 
Q 2822 3041 2909 2606 
L 2403 2544 
Q 2356 2769 2151 2889 
Q 1947 3009 1603 3009 
Q 1222 3009 1040 2893 
Q 859 2778 859 2544 
Q 859 2400 934 2306 
Q 1009 2213 1156 2147 
Q 1303 2081 1775 1966 
Q 2222 1853 2419 1758 
Q 2616 1663 2730 1547 
Q 2844 1431 2906 1279 
Q 2969 1128 2969 934 
z
" id="LiberationSans-73" transform="scale(0.015625)"/>
      <path d="M 863 1572 
Q 863 991 1103 675 
Q 1344 359 1806 359 
Q 2172 359 2392 506 
Q 2613 653 2691 878 
L 3184 738 
Q 2881 -63 1806 -63 
Q 1056 -63 664 384 
Q 272 831 272 1713 
Q 272 2550 664 2997 
Q 1056 3444 1784 3444 
Q 3275 3444 3275 1647 
L 3275 1572 
L 863 1572 
z
M 2694 2003 
Q 2647 2538 2422 2783 
Q 2197 3028 1775 3028 
Q 1366 3028 1127 2754 
Q 888 2481 869 2003 
L 2694 2003 
z
" id="LiberationSans-65" transform="scale(0.015625)"/>
      <path d="M 1734 1650 
Q 1734 747 1451 28 
Q 1169 -691 581 -1325 
L 38 -1325 
Q 625 -669 897 57 
Q 1169 784 1169 1656 
Q 1169 2528 895 3256 
Q 622 3984 38 4638 
L 581 4638 
Q 1172 4000 1453 3279 
Q 1734 2559 1734 1663 
L 1734 1650 
z
" id="LiberationSans-29" transform="scale(0.015625)"/>
     </defs>
     <use xlink:href="#LiberationSans-6d"/>
     <use x="83.300781" xlink:href="#LiberationSans-6f"/>
     <use x="138.916016" xlink:href="#LiberationSans-6e"/>
     <use x="194.53125" xlink:href="#LiberationSans-74"/>
     <use x="222.314453" xlink:href="#LiberationSans-68"/>
     <use x="277.929688" xlink:href="#LiberationSans-6c"/>
     <use x="300.146484" xlink:href="#LiberationSans-79"/>
     <use x="350.146484" xlink:href="#LiberationSans-20"/>
     <use x="377.929688" xlink:href="#LiberationSans-76"/>
     <use x="427.929688" xlink:href="#LiberationSans-61"/>
     <use x="483.544922" xlink:href="#LiberationSans-72"/>
     <use x="516.845703" xlink:href="#LiberationSans-69"/>
     <use x="539.0625" xlink:href="#LiberationSans-61"/>
     <use x="594.677734" xlink:href="#LiberationSans-74"/>
     <use x="622.460938" xlink:href="#LiberationSans-69"/>
     <use x="644.677734" xlink:href="#LiberationSans-6f"/>
     <use x="700.292969" xlink:href="#LiberationSans-6e"/>
     <use x="755.908203" xlink:href="#LiberationSans-20"/>
     <use x="783.691406" xlink:href="#LiberationSans-28"/>
     <use x="816.992188" xlink:href="#LiberationSans-6c"/>
     <use x="839.208984" xlink:href="#LiberationSans-61"/>
     <use x="894.824219" xlink:href="#LiberationSans-73"/>
     <use x="944.824219" xlink:href="#LiberationSans-74"/>
     <use x="972.607422" xlink:href="#LiberationSans-20"/>
     <use x="1000.390625" xlink:href="#LiberationSans-34"/>
     <use x="1056.005859" xlink:href="#LiberationSans-20"/>
     <use x="1083.789062" xlink:href="#LiberationSans-79"/>
     <use x="1133.789062" xlink:href="#LiberationSans-65"/>
     <use x="1189.404297" xlink:href="#LiberationSans-61"/>
     <use x="1245.019531" xlink:href="#LiberationSans-72"/>
     <use x="1278.320312" xlink:href="#LiberationSans-73"/>
     <use x="1328.320312" xlink:href="#LiberationSans-29"/>
    </g>
   </g>
   <g id="legend_1">
    <g id="PathCollection_2">
     <g>
      <use style="stroke:#000000;" x="127" xlink:href="#mc7e364dfda" y="56.821875"/>
     </g>
    </g>
    <g id="text_19">
     <!-- observed -->
     <g style="fill:#262626;" transform="translate(145 59.446875)scale(0.1 -0.1)">
      <defs>
       <path d="M 3291 1706 
Q 3291 -63 2047 -63 
Q 1663 -63 1408 76 
Q 1153 216 994 525 
L 988 525 
Q 988 428 975 229 
Q 963 31 956 0 
L 413 0 
Q 431 169 431 697 
L 431 4638 
L 994 4638 
L 994 3316 
Q 994 3113 981 2838 
L 994 2838 
Q 1150 3163 1408 3303 
Q 1666 3444 2047 3444 
Q 2688 3444 2989 3012 
Q 3291 2581 3291 1706 
z
M 2700 1688 
Q 2700 2397 2512 2703 
Q 2325 3009 1903 3009 
Q 1428 3009 1211 2684 
Q 994 2359 994 1653 
Q 994 988 1206 670 
Q 1419 353 1897 353 
Q 2322 353 2511 667 
Q 2700 981 2700 1688 
z
" id="LiberationSans-62" transform="scale(0.015625)"/>
       <path d="M 2566 544 
Q 2409 219 2151 78 
Q 1894 -63 1513 -63 
Q 872 -63 570 368 
Q 269 800 269 1675 
Q 269 3444 1513 3444 
Q 1897 3444 2153 3303 
Q 2409 3163 2566 2856 
L 2572 2856 
L 2566 3234 
L 2566 4638 
L 3128 4638 
L 3128 697 
Q 3128 169 3147 0 
L 2609 0 
Q 2600 50 2589 231 
Q 2578 413 2578 544 
L 2566 544 
z
M 859 1694 
Q 859 984 1046 678 
Q 1234 372 1656 372 
Q 2134 372 2350 703 
Q 2566 1034 2566 1731 
Q 2566 2403 2350 2715 
Q 2134 3028 1663 3028 
Q 1238 3028 1048 2714 
Q 859 2400 859 1694 
z
" id="LiberationSans-64" transform="scale(0.015625)"/>
      </defs>
      <use xlink:href="#LiberationSans-6f"/>
      <use x="55.615234" xlink:href="#LiberationSans-62"/>
      <use x="111.230469" xlink:href="#LiberationSans-73"/>
      <use x="161.230469" xlink:href="#LiberationSans-65"/>
      <use x="216.845703" xlink:href="#LiberationSans-72"/>
      <use x="250.146484" xlink:href="#LiberationSans-76"/>
      <use x="300.146484" xlink:href="#LiberationSans-65"/>
      <use x="355.761719" xlink:href="#LiberationSans-64"/>
     </g>
    </g>
    <g id="patch_7">
     <path d="M 117 73.76875 
L 137 73.76875 
L 137 66.76875 
L 117 66.76875 
z
" style="fill:#1f77b4;fill-opacity:0.7;stroke:#1f77b4;stroke-linejoin:miter;stroke-opacity:0.7;"/>
    </g>
    <g id="text_20">
     <!-- estimate (95%) -->
     <g style="fill:#262626;" transform="translate(145 73.76875)scale(0.1 -0.1)">
      <defs>
       <path d="M 3291 1434 
Q 3291 738 2877 337 
Q 2463 -63 1728 -63 
Q 1113 -63 734 206 
Q 356 475 256 984 
L 825 1050 
Q 1003 397 1741 397 
Q 2194 397 2450 670 
Q 2706 944 2706 1422 
Q 2706 1838 2448 2094 
Q 2191 2350 1753 2350 
Q 1525 2350 1328 2278 
Q 1131 2206 934 2034 
L 384 2034 
L 531 4403 
L 3034 4403 
L 3034 3925 
L 1044 3925 
L 959 2528 
Q 1325 2809 1869 2809 
Q 2519 2809 2905 2428 
Q 3291 2047 3291 1434 
z
" id="LiberationSans-35" transform="scale(0.015625)"/>
       <path d="M 5463 1356 
Q 5463 684 5209 323 
Q 4956 -38 4463 -38 
Q 3975 -38 3726 314 
Q 3478 666 3478 1356 
Q 3478 2069 3717 2417 
Q 3956 2766 4475 2766 
Q 4988 2766 5225 2408 
Q 5463 2050 5463 1356 
z
M 1647 0 
L 1163 0 
L 4044 4403 
L 4534 4403 
L 1647 0 
z
M 1231 4441 
Q 1728 4441 1968 4091 
Q 2209 3741 2209 3047 
Q 2209 2369 1961 2003 
Q 1713 1638 1219 1638 
Q 725 1638 476 2000 
Q 228 2363 228 3047 
Q 228 3744 468 4092 
Q 709 4441 1231 4441 
z
M 5000 1356 
Q 5000 1916 4879 2167 
Q 4759 2419 4475 2419 
Q 4191 2419 4064 2172 
Q 3938 1925 3938 1356 
Q 3938 822 4061 564 
Q 4184 306 4469 306 
Q 4744 306 4872 567 
Q 5000 828 5000 1356 
z
M 1750 3047 
Q 1750 3597 1631 3850 
Q 1513 4103 1231 4103 
Q 938 4103 813 3854 
Q 688 3606 688 3047 
Q 688 2506 813 2248 
Q 938 1991 1225 1991 
Q 1497 1991 1623 2253 
Q 1750 2516 1750 3047 
z
" id="LiberationSans-25" transform="scale(0.015625)"/>
      </defs>
      <use xlink:href="#LiberationSans-65"/>
      <use x="55.615234" xlink:href="#LiberationSans-73"/>
      <use x="105.615234" xlink:href="#LiberationSans-74"/>
      <use x="133.398438" xlink:href="#LiberationSans-69"/>
      <use x="155.615234" xlink:href="#LiberationSans-6d"/>
      <use x="238.916016" xlink:href="#LiberationSans-61"/>
      <use x="294.53125" xlink:href="#LiberationSans-74"/>
      <use x="322.314453" xlink:href="#LiberationSans-65"/>
      <use x="377.929688" xlink:href="#LiberationSans-20"/>
      <use x="405.712891" xlink:href="#LiberationSans-28"/>
      <use x="439.013672" xlink:href="#LiberationSans-39"/>
      <use x="494.628906" xlink:href="#LiberationSans-35"/>
      <use x="550.244141" xlink:href="#LiberationSans-25"/>
      <use x="639.160156" xlink:href="#LiberationSans-29"/>
     </g>
    </g>
   </g>
  </g>
 </g>
 <defs>
  <clipPath id="pc446412181">
   <rect height="271.8" width="669.6" x="108" y="43.2"/>
  </clipPath>
 </defs>
</svg>
